<?xml version="1.0" encoding="UTF-8"?>
<svg id="Layer_2" xmlns="http://www.w3.org/2000/svg" viewBox="0 0 1214.01 812.21">
  <defs>
    <style>
      .cls-1 {
        fill: #fff;
      }

      .cls-2 {
        fill: #5cbd79;
      }
    </style>
  </defs>
  <g id="Layer_1-2" data-name="Layer_1">
    <g>
      <polygon class="cls-2" points="611.85 249.29 528.98 299.56 455.62 257.44 681.14 129.74 681.14 385.14 611.85 345.75 611.85 249.29"/>
      <polygon class="cls-2" points="477.36 111.8 681.14 0 681.14 86.27 534.41 168.85 477.36 111.8"/>
    </g>
    <g>
      <path class="cls-1" d="M38.84,531.99H0v-30.28h38.84v-23.04c0-35.88,20.74-55.3,58.92-55.3,8.89,0,17.45.66,24.36,2.96v30.61c-7.9-1.97-13.17-2.96-20.74-2.96-18.1,0-26.99,8.23-26.99,25.35v22.38h47.73v30.28h-47.73v138.25h-35.55v-138.25Z"/>
      <path class="cls-1" d="M139.9,585.97c0-49.05,39.17-87.56,88.55-87.56s88.22,38.51,88.22,87.56-38.84,87.56-88.22,87.56-88.55-38.19-88.55-87.56ZM281.45,585.97c0-31.27-23.37-55.96-53-55.96s-53.33,24.69-53.33,55.96,23.37,55.96,53.33,55.96,53-24.36,53-55.96Z"/>
      <path class="cls-1" d="M355.51,501.7h35.88v21.07c10.53-15.8,26.33-25.02,46.08-25.02,7.57.33,12.51.99,17.12,3.29v31.93c-6.25-2.63-13.17-3.95-20.41-3.95-18.76,0-34.23,10.53-42.79,29.3v111.92h-35.88v-168.54Z"/>
      <path class="cls-1" d="M475.66,501.7h34.56l31.6,119.82,37.2-119.82h30.61l36.87,120.15,31.6-120.15h33.91l-47.07,168.54h-34.56l-36.54-119.49-36.87,119.49h-34.56l-46.74-168.54Z"/>
      <path class="cls-1" d="M732.09,621.85c0-31.93,26-51.35,68.47-51.35,15.8,0,30.94,3.29,44.77,8.89v-16.46c0-22.71-13.5-34.23-39.5-34.23-15.47,0-31.27,4.28-52.34,14.15l-13.17-26.99c25.68-12.18,47.73-17.45,70.44-17.45,44.44,0,69.79,21.73,69.79,60.57v111.26h-35.22v-13.83c-14.48,11.52-31.27,16.79-51.35,16.79-36.54,0-61.89-20.74-61.89-51.35ZM802.54,646.87c17.12,0,31.27-4.61,42.79-14.81v-27.65c-12.18-6.58-25.68-9.55-41.48-9.55-23.04,0-37.2,10.21-37.2,26.01s14.15,26,35.88,26Z"/>
      <path class="cls-1" d="M925.98,501.7h35.88v21.07c10.53-15.8,26.33-25.02,46.08-25.02,7.57.33,12.51.99,17.12,3.29v31.93c-6.25-2.63-13.17-3.95-20.41-3.95-18.76,0-34.23,10.53-42.79,29.3v111.92h-35.88v-168.54Z"/>
      <path class="cls-1" d="M1042.51,585.64c0-48.39,37.86-86.57,86.24-86.57,18.1,0,35.22,5.6,49.38,15.8v-75.05l35.88-6.58v237.01h-35.22v-15.47c-14.15,11.85-31.6,18.11-50.69,18.11-47.73,0-85.59-38.19-85.59-87.23ZM1178.13,622.51v-73.41c-10.53-11.85-26.99-19.09-45.1-19.09-31.27,0-54.97,23.7-54.97,55.63s24.03,55.96,54.97,55.96c18.43,0,34.56-6.91,45.1-19.09Z"/>
    </g>
    <g>
      <path class="cls-1" d="M215.18,790.21v5.22c-1.37.53-2.9.79-4.59.79-3.85,0-5.83-2-5.93-6.01-3.85,4.33-8.78,6.49-14.8,6.49-4.01,0-7.19-1.03-9.53-3.09-2.35-2.06-3.52-4.88-3.52-8.47,0-7.28,4.83-11.52,14.48-12.74.63-.11,1.56-.21,2.77-.32,4.59-.53,7.41-1.13,8.47-1.82,1.21-.84,1.82-2.29,1.82-4.35,0-4.48-3.09-6.73-9.26-6.73-3.17,0-5.57.65-7.2,1.94-1.64,1.29-2.61,3.42-2.93,6.37h-6.57c.11-4.38,1.66-7.78,4.67-10.21,3.01-2.43,7.15-3.64,12.42-3.64,5.75,0,10.02,1.32,12.82,3.96.9.84,1.56,1.95,1.98,3.32.42,1.37.66,2.49.71,3.36.05.87.08,2.18.08,3.92,0,2-.05,5.04-.16,9.1-.11,4.06-.16,7.09-.16,9.1,0,1.48.2,2.52.59,3.13s1.12.91,2.18.91c.42,0,.98-.08,1.66-.24ZM204.34,774.39c-.47.37-.98.69-1.5.95-.53.26-1.2.47-2.02.63-.82.16-1.37.28-1.66.36-.29.08-.99.19-2.1.32-1.11.13-1.69.2-1.74.2-1.64.21-2.7.36-3.2.43-.5.08-1.45.3-2.85.67-1.4.37-2.39.79-2.97,1.27-.58.47-1.15,1.17-1.7,2.1-.55.92-.83,2.02-.83,3.28,0,2.11.72,3.77,2.18,4.99,1.45,1.21,3.44,1.82,5.97,1.82,3.22,0,6.09-.95,8.62-2.85,2.53-1.9,3.8-4.14,3.8-6.73v-7.44Z"/>
      <path class="cls-1" d="M266.21,739.26v56.33h-6.33v-6.01c-2.59,4.75-7.07,7.12-13.45,7.12-5.8,0-10.4-1.94-13.81-5.82-3.4-3.88-5.1-9.14-5.1-15.79,0-6.17,1.59-11.3,4.79-15.39,3.19-4.09,7.79-6.13,13.81-6.13s10.31,2.22,13.37,6.65v-20.97h6.73ZM246.98,759.35c-3.85,0-6.9,1.4-9.14,4.19-2.24,2.8-3.36,6.59-3.36,11.39s1.15,8.9,3.44,11.83c2.29,2.93,5.37,4.39,9.22,4.39s6.96-1.41,9.18-4.23c2.22-2.82,3.32-6.74,3.32-11.75,0-4.48-1.04-8.24-3.13-11.28-2.08-3.03-5.26-4.55-9.53-4.55Z"/>
      <path class="cls-1" d="M280.29,754.76h7.52l11.55,34.26,11.24-34.26h7.04l-14.95,40.83h-7.2l-15.19-40.83Z"/>
      <path class="cls-1" d="M366.62,782.69c-2.06,9.5-7.99,14.24-17.8,14.24-6.01,0-10.72-1.87-14.12-5.62-3.4-3.75-5.1-8.94-5.1-15.59s1.75-11.93,5.26-16.02c3.51-4.09,8.08-6.13,13.73-6.13,6.28,0,10.93,2.12,13.97,6.37,3.03,4.25,4.55,9.61,4.55,16.1v.95h-30.7l-.08.47c0,4.33,1.13,7.73,3.4,10.21,2.27,2.48,5.38,3.72,9.34,3.72,2.95,0,5.29-.68,7-2.06,1.71-1.37,3.05-3.59,4-6.65h6.57ZM360.13,771.54c-.32-3.9-1.5-6.95-3.56-9.14-2.06-2.19-4.77-3.28-8.15-3.28s-5.99,1.11-8.15,3.32c-2.16,2.22-3.46,5.25-3.88,9.1h23.74Z"/>
      <path class="cls-1" d="M403.41,753.81v6.96c-.48-.05-1.06-.08-1.74-.08-2.16,0-4.04.33-5.62.99-1.58.66-2.84,1.52-3.76,2.57-.92,1.06-1.67,2.37-2.25,3.96-.58,1.58-.96,3.16-1.15,4.75-.19,1.58-.28,3.38-.28,5.38v17.25h-6.73v-40.83h6.41v8.78c2.69-6.49,7.73-9.73,15.11-9.73Z"/>
      <path class="cls-1" d="M433.87,754.76v5.54h-8.15v23.82c0,1.32.01,2.19.04,2.61.03.42.17.99.44,1.7.26.71.71,1.17,1.35,1.38.63.21,1.53.32,2.69.32,1,0,2.22-.08,3.64-.24v5.78c-1.9.21-3.61.32-5.14.32-1.9,0-3.48-.21-4.75-.63s-2.23-.9-2.89-1.42c-.66-.53-1.15-1.46-1.46-2.81-.32-1.35-.5-2.48-.55-3.4-.05-.92-.08-2.47-.08-4.63v-22.79h-6.88v-5.54h6.88v-12.11h6.73v12.11h8.15Z"/>
      <path class="cls-1" d="M456.34,739.26v8.23h-6.8v-8.23h6.8ZM456.34,754.76v40.83h-6.8v-40.83h6.8Z"/>
      <path class="cls-1" d="M505,766.63h-6.73c-.42-4.96-3.75-7.44-9.97-7.44-2.58,0-4.62.5-6.09,1.5-1.48,1-2.22,2.35-2.22,4.04,0,.47.05.94.16,1.38.1.45.3.84.59,1.19.29.34.55.65.79.91.24.26.63.51,1.19.75.55.24.98.43,1.27.59.29.16.82.33,1.58.51.76.19,1.31.32,1.62.39.32.08.94.23,1.86.44.92.21,1.52.34,1.78.4,1.95.42,3.41.76,4.39,1.03.98.27,2.32.75,4.04,1.46,1.71.71,3.02,1.45,3.92,2.21.9.77,1.7,1.82,2.41,3.17s1.07,2.86,1.07,4.55c0,3.96-1.54,7.13-4.63,9.53s-7.19,3.6-12.3,3.6c-5.54,0-9.8-1.21-12.78-3.64-2.98-2.43-4.58-5.93-4.79-10.52h6.65c.37,5.75,4.06,8.62,11.08,8.62,3.01,0,5.42-.62,7.24-1.86,1.82-1.24,2.73-2.89,2.73-4.95,0-1.37-.48-2.5-1.42-3.4-.95-.9-2.01-1.54-3.17-1.94-1.16-.4-2.82-.86-4.98-1.38-.32-.05-.55-.1-.71-.16-.47-.1-1.49-.33-3.05-.67-1.56-.34-2.68-.62-3.36-.83-.69-.21-1.68-.54-2.97-.99-1.29-.45-2.25-.92-2.89-1.42-.63-.5-1.33-1.13-2.1-1.9-.77-.76-1.31-1.66-1.62-2.69s-.47-2.2-.47-3.52c0-3.69,1.41-6.62,4.23-8.78,2.82-2.16,6.61-3.24,11.35-3.24s8.72,1.13,11.75,3.4c3.03,2.27,4.55,5.49,4.55,9.65Z"/>
      <path class="cls-1" d="M529.29,739.26v8.23h-6.8v-8.23h6.8ZM529.29,754.76v40.83h-6.8v-40.83h6.8Z"/>
      <path class="cls-1" d="M553.97,754.76v6.33c3.38-4.96,8.02-7.44,13.93-7.44,4.8,0,8.27,1.25,10.4,3.76,2.14,2.51,3.2,6.19,3.2,11.04v27.14h-6.73v-24.05c0-2-.07-3.57-.2-4.71-.13-1.13-.46-2.35-.99-3.64-.53-1.29-1.42-2.23-2.69-2.81-1.27-.58-2.9-.87-4.91-.87-7.75,0-11.63,4.91-11.63,14.72v21.36h-6.73v-40.83h6.33Z"/>
      <path class="cls-1" d="M634.92,754.76v36.4c0,3.53-.19,6.26-.55,8.19-.37,1.92-1.06,3.73-2.06,5.42-3.01,4.96-8.39,7.44-16.14,7.44-4.59,0-8.47-.94-11.63-2.81-3.17-1.87-5.01-4.95-5.54-9.22h6.88c.79,4.54,4.3,6.8,10.52,6.8,4.17,0,7.19-1.06,9.06-3.16,1.87-2.11,2.86-5.51,2.97-10.21l.08-4.99c-2.58,4.96-6.91,7.44-12.98,7.44-5.49,0-9.85-1.87-13.1-5.62-3.24-3.74-4.87-8.78-4.87-15.11,0-5.96,1.61-11.06,4.83-15.31,3.22-4.25,7.7-6.37,13.45-6.37,2.85,0,5.39.61,7.64,1.82,2.24,1.21,4,2.95,5.26,5.22v-5.93h6.17ZM616.16,759.51c-3.64,0-6.5,1.41-8.58,4.23-2.08,2.82-3.12,6.71-3.12,11.67,0,4.48,1.08,8.08,3.24,10.8,2.16,2.72,5.04,4.07,8.62,4.07s6.69-1.42,8.82-4.27c2.14-2.85,3.2-6.75,3.2-11.71,0-4.64-1.07-8.27-3.2-10.88s-5.13-3.92-8.98-3.92Z"/>
      <path class="cls-1" d="M717.92,780.72c-.58,4.91-2.44,8.81-5.58,11.71-3.14,2.9-7.21,4.35-12.22,4.35-6.17,0-10.95-1.91-14.32-5.74-3.38-3.82-5.06-8.93-5.06-15.31,0-6.8,1.77-12.2,5.3-16.18,3.53-3.98,8.31-5.97,14.32-5.97,5.01,0,9.02,1.25,12.03,3.76,3.01,2.51,4.77,6.08,5.3,10.72h-6.96c-1.21-5.91-4.64-8.86-10.29-8.86-3.9,0-6.99,1.44-9.26,4.31-2.27,2.88-3.4,6.77-3.4,11.67s1.08,8.86,3.24,11.71c2.16,2.85,5.14,4.27,8.94,4.27,3.06,0,5.55-.9,7.48-2.69,1.93-1.79,3.15-4.38,3.68-7.75h6.8Z"/>
      <path class="cls-1" d="M736.43,759.43c3.59-3.9,8.47-5.86,14.64-5.86s10.97,1.87,14.4,5.62c3.43,3.75,5.14,8.99,5.14,15.75s-1.71,12.29-5.14,16.14c-3.43,3.85-8.26,5.78-14.48,5.78s-11.1-1.9-14.64-5.7c-3.53-3.8-5.3-9.07-5.3-15.82s1.79-12,5.38-15.9ZM760.28,763.51c-2.29-2.87-5.42-4.31-9.38-4.31s-7.1,1.45-9.42,4.35c-2.32,2.9-3.48,6.78-3.48,11.63s1.15,8.93,3.44,11.75c2.29,2.82,5.5,4.23,9.61,4.23s7.05-1.42,9.3-4.27c2.24-2.85,3.36-6.78,3.36-11.79s-1.15-8.72-3.44-11.59Z"/>
      <path class="cls-1" d="M792.84,754.76v5.93c1.79-2.43,3.72-4.19,5.78-5.3,2.06-1.11,4.56-1.66,7.52-1.66,5.59,0,9.36,2.35,11.31,7.04,3.53-4.75,8.04-7.12,13.53-7.12,4.22,0,7.42,1.17,9.61,3.52,2.19,2.35,3.28,5.63,3.28,9.85v28.56h-6.73v-25.71c0-3.38-.53-5.92-1.58-7.64-1.06-1.71-3.24-2.57-6.57-2.57-6.96,0-10.44,4.25-10.44,12.74v23.18h-6.73v-26.19c0-3.11-.51-5.5-1.54-7.16-1.03-1.66-3.02-2.49-5.97-2.49-4.17,0-7.06,1.28-8.66,3.84-1.61,2.56-2.41,6.03-2.41,10.4v21.6h-6.73v-40.83h6.33Z"/>
      <path class="cls-1" d="M868.25,754.76v5.78c2.95-4.69,7.54-7.04,13.77-7.04,5.7,0,10.22,1.93,13.57,5.78,3.35,3.85,5.02,9.07,5.02,15.67s-1.65,11.86-4.94,15.79c-3.3,3.93-7.74,5.89-13.33,5.89s-10.42-2.24-13.69-6.72v21.44h-6.73v-56.57h6.33ZM880.99,759.11c-3.9,0-6.98,1.41-9.22,4.23-2.24,2.82-3.36,6.71-3.36,11.67s1.15,8.85,3.44,11.67c2.29,2.82,5.42,4.23,9.38,4.23s6.88-1.42,9.1-4.27c2.22-2.85,3.32-6.73,3.32-11.63s-1.12-8.85-3.36-11.67c-2.24-2.82-5.34-4.23-9.3-4.23Z"/>
      <path class="cls-1" d="M952.91,790.21v5.22c-1.37.53-2.9.79-4.59.79-3.85,0-5.83-2-5.93-6.01-3.85,4.33-8.78,6.49-14.8,6.49-4.01,0-7.19-1.03-9.53-3.09-2.35-2.06-3.52-4.88-3.52-8.47,0-7.28,4.83-11.52,14.48-12.74.63-.11,1.56-.21,2.77-.32,4.59-.53,7.41-1.13,8.47-1.82,1.21-.84,1.82-2.29,1.82-4.35,0-4.48-3.09-6.73-9.26-6.73-3.17,0-5.57.65-7.2,1.94-1.64,1.29-2.61,3.42-2.93,6.37h-6.57c.11-4.38,1.66-7.78,4.67-10.21,3.01-2.43,7.15-3.64,12.42-3.64,5.75,0,10.02,1.32,12.82,3.96.9.84,1.56,1.95,1.98,3.32.42,1.37.66,2.49.71,3.36.05.87.08,2.18.08,3.92,0,2-.05,5.04-.16,9.1-.11,4.06-.16,7.09-.16,9.1,0,1.48.2,2.52.59,3.13s1.12.91,2.18.91c.42,0,.98-.08,1.66-.24ZM942.07,774.39c-.47.37-.98.69-1.5.95-.53.26-1.2.47-2.02.63-.82.16-1.37.28-1.66.36-.29.08-.99.19-2.1.32-1.11.13-1.69.2-1.74.2-1.64.21-2.7.36-3.2.43-.5.08-1.45.3-2.85.67-1.4.37-2.39.79-2.97,1.27-.58.47-1.15,1.17-1.7,2.1-.55.92-.83,2.02-.83,3.28,0,2.11.72,3.77,2.18,4.99,1.45,1.21,3.44,1.82,5.97,1.82,3.22,0,6.09-.95,8.62-2.85,2.53-1.9,3.8-4.14,3.8-6.73v-7.44Z"/>
      <path class="cls-1" d="M973.48,754.76v6.33c3.38-4.96,8.02-7.44,13.93-7.44,4.8,0,8.27,1.25,10.4,3.76,2.14,2.51,3.2,6.19,3.2,11.04v27.14h-6.73v-24.05c0-2-.07-3.57-.2-4.71-.13-1.13-.46-2.35-.99-3.64-.53-1.29-1.42-2.23-2.69-2.81-1.27-.58-2.9-.87-4.91-.87-7.75,0-11.63,4.91-11.63,14.72v21.36h-6.73v-40.83h6.33Z"/>
      <path class="cls-1" d="M1052.84,754.76l-17.49,46.05c-.69,1.85-1.28,3.28-1.78,4.31-.5,1.03-1.21,2.16-2.14,3.4-.92,1.24-2.03,2.14-3.32,2.69-1.29.55-2.81.83-4.55.83-1.32,0-2.98-.24-4.98-.71v-6.01c1.95.58,3.4.87,4.35.87,2.22,0,3.8-1.13,4.75-3.4l3.16-7.44-16.22-40.59h7.6l12.11,32.52,11.47-32.52h7.04Z"/>
    </g>
  </g>
</svg>