<?xml version="1.0" encoding="UTF-8"?>
<svg id="Layer_2" xmlns="http://www.w3.org/2000/svg" viewBox="0 0 1322.72 298.87">
  <defs>
    <style>
      .cls-1 {
        fill: #fff;
      }

      .cls-2 {
        fill: #5cbd79;
      }
    </style>
  </defs>
  <g id="Layer_1-2" data-name="Layer_1">
    <g>
      <g>
        <polygon class="cls-2" points="121.23 193.45 56.93 232.45 0 199.77 175 100.68 175 298.87 121.23 268.3 121.23 193.45"/>
        <polygon class="cls-2" points="16.87 86.75 175 0 175 66.94 61.14 131.03 16.87 86.75"/>
      </g>
      <g>
        <path class="cls-1" d="M286.33,133.92h-34.26v-26.71h34.26v-20.32c0-31.64,18.29-48.77,51.97-48.77,7.84,0,15.39.58,21.48,2.61v27c-6.97-1.74-11.61-2.61-18.29-2.61-15.97,0-23.81,7.26-23.81,22.35v19.74h42.1v26.71h-42.1v121.93h-31.35v-121.93Z"/>
        <path class="cls-1" d="M375.45,181.53c0-43.26,34.55-77.22,78.09-77.22s77.8,33.97,77.8,77.22-34.26,77.22-77.8,77.22-78.09-33.68-78.09-77.22ZM500.28,181.53c0-27.58-20.61-49.35-46.74-49.35s-47.03,21.77-47.03,49.35,20.61,49.35,47.03,49.35,46.74-21.48,46.74-49.35Z"/>
        <path class="cls-1" d="M565.6,107.21h31.64v18.58c9.29-13.94,23.23-22.06,40.64-22.06,6.68.29,11.03.87,15.1,2.9v28.16c-5.52-2.32-11.61-3.48-18-3.48-16.55,0-30.19,9.29-37.74,25.84v98.71h-31.64V107.21Z"/>
        <path class="cls-1" d="M671.56,107.21h30.48l27.87,105.67,32.81-105.67h27l32.52,105.96,27.87-105.96h29.9l-41.52,148.64h-30.48l-32.22-105.38-32.52,105.38h-30.48l-41.22-148.64Z"/>
        <path class="cls-1" d="M897.71,213.17c0-28.16,22.93-45.29,60.39-45.29,13.94,0,27.29,2.9,39.48,7.84v-14.52c0-20.03-11.9-30.19-34.84-30.19-13.64,0-27.58,3.77-46.16,12.48l-11.61-23.81c22.64-10.74,42.1-15.39,62.13-15.39,39.19,0,61.55,19.16,61.55,53.42v98.13h-31.06v-12.19c-12.77,10.16-27.58,14.81-45.29,14.81-32.23,0-54.58-18.29-54.58-45.29ZM959.83,235.23c15.1,0,27.58-4.06,37.74-13.06v-24.39c-10.74-5.81-22.64-8.42-36.58-8.42-20.32,0-32.81,9-32.81,22.93s12.48,22.93,31.64,22.93Z"/>
        <path class="cls-1" d="M1068.7,107.21h31.64v18.58c9.29-13.94,23.23-22.06,40.64-22.06,6.68.29,11.03.87,15.1,2.9v28.16c-5.52-2.32-11.61-3.48-18-3.48-16.55,0-30.19,9.29-37.74,25.84v98.71h-31.64V107.21Z"/>
        <path class="cls-1" d="M1171.47,181.24c0-42.68,33.39-76.35,76.06-76.35,15.97,0,31.06,4.94,43.55,13.93V52.63l31.64-5.81v209.03h-31.06v-13.64c-12.48,10.45-27.87,15.97-44.71,15.97-42.1,0-75.48-33.68-75.48-76.93ZM1291.07,213.75v-64.74c-9.29-10.45-23.81-16.84-39.77-16.84-27.58,0-48.48,20.9-48.48,49.06s21.19,49.35,48.48,49.35c16.26,0,30.48-6.1,39.77-16.84Z"/>
      </g>
    </g>
  </g>
</svg>