<?xml version="1.0" encoding="UTF-8"?>
<svg id="Layer_2" xmlns="http://www.w3.org/2000/svg" viewBox="0 0 1908.57 298.87">
  <defs>
    <style>
      .cls-1 {
        fill: #fff;
      }

      .cls-2 {
        fill: #5cbd79;
      }
    </style>
  </defs>
  <g id="Layer_1-2" data-name="Layer_1">
    <g>
      <path class="cls-1" d="M1439.1,143.96v5.84c-1.54.59-3.25.88-5.13.88-4.31,0-6.52-2.24-6.64-6.72-4.31,4.84-9.82,7.26-16.55,7.26-4.48,0-8.04-1.15-10.66-3.45-2.63-2.3-3.94-5.46-3.94-9.47,0-8.14,5.4-12.89,16.2-14.25.71-.12,1.74-.24,3.1-.35,5.13-.59,8.29-1.27,9.47-2.04,1.36-.94,2.04-2.57,2.04-4.87,0-5.01-3.45-7.52-10.35-7.52-3.54,0-6.23.72-8.05,2.17-1.83,1.45-2.92,3.82-3.27,7.12h-7.34c.12-4.9,1.86-8.7,5.22-11.42s7.99-4.07,13.89-4.07c6.43,0,11.21,1.48,14.34,4.43,1,.94,1.74,2.18,2.21,3.72.47,1.53.74,2.79.8,3.76.06.97.09,2.43.09,4.38,0,2.24-.06,5.63-.18,10.18-.12,4.54-.18,7.94-.18,10.18,0,1.65.22,2.82.66,3.5.44.68,1.25,1.02,2.43,1.02.47,0,1.09-.09,1.86-.26ZM1426.97,126.26c-.53.41-1.09.77-1.68,1.06-.59.3-1.34.53-2.26.71-.92.18-1.54.31-1.86.4-.33.09-1.11.21-2.35.35-1.24.15-1.89.22-1.95.22-1.83.24-3.02.4-3.58.49-.56.09-1.62.34-3.19.75-1.56.41-2.67.88-3.32,1.42-.65.53-1.28,1.31-1.9,2.34-.62,1.03-.93,2.26-.93,3.67,0,2.36.81,4.22,2.43,5.58,1.62,1.36,3.85,2.04,6.68,2.04,3.6,0,6.81-1.06,9.65-3.19,2.83-2.12,4.25-4.63,4.25-7.52v-8.32Z"/>
      <path class="cls-1" d="M1496.18,86.96v63.01h-7.08v-6.73c-2.89,5.31-7.91,7.96-15.04,7.96-6.49,0-11.64-2.17-15.44-6.5-3.81-4.34-5.71-10.22-5.71-17.66,0-6.9,1.78-12.64,5.35-17.21,3.57-4.57,8.72-6.86,15.44-6.86s11.53,2.48,14.96,7.43v-23.45h7.52ZM1474.67,109.44c-4.31,0-7.71,1.56-10.22,4.69-2.51,3.13-3.76,7.38-3.76,12.74s1.28,9.96,3.85,13.23,6,4.91,10.31,4.91,7.79-1.58,10.27-4.73c2.48-3.16,3.72-7.54,3.72-13.14,0-5.01-1.17-9.22-3.5-12.61-2.33-3.39-5.88-5.09-10.66-5.09Z"/>
      <path class="cls-1" d="M1511.93,104.31h8.41l12.92,38.32,12.57-38.32h7.88l-16.73,45.67h-8.05l-16.99-45.67Z"/>
      <path class="cls-1" d="M1608.48,135.55c-2.3,10.62-8.94,15.93-19.91,15.93-6.73,0-11.99-2.09-15.8-6.28-3.81-4.19-5.71-10-5.71-17.43s1.96-13.35,5.88-17.92c3.92-4.57,9.04-6.86,15.35-6.86,7.02,0,12.23,2.38,15.62,7.12,3.39,4.75,5.09,10.75,5.09,18.01v1.06h-34.34l-.09.53c0,4.84,1.27,8.64,3.81,11.42,2.54,2.77,6.02,4.16,10.44,4.16,3.3,0,5.91-.77,7.83-2.3,1.92-1.53,3.41-4.01,4.47-7.43h7.35ZM1601.22,123.07c-.35-4.37-1.68-7.77-3.98-10.22-2.3-2.45-5.34-3.67-9.12-3.67s-6.7,1.24-9.12,3.72c-2.42,2.48-3.86,5.87-4.34,10.18h26.55Z"/>
      <path class="cls-1" d="M1649.63,103.25v7.79c-.53-.06-1.18-.09-1.95-.09-2.42,0-4.51.37-6.28,1.11-1.77.74-3.17,1.7-4.2,2.88-1.03,1.18-1.87,2.65-2.52,4.42-.65,1.77-1.08,3.54-1.28,5.31-.21,1.77-.31,3.78-.31,6.02v19.29h-7.52v-45.67h7.17v9.82c3.01-7.26,8.64-10.88,16.9-10.88Z"/>
      <path class="cls-1" d="M1683.7,104.31v6.19h-9.12v26.64c0,1.47.01,2.45.04,2.92.03.47.19,1.11.49,1.9.29.8.8,1.31,1.5,1.55.71.24,1.71.35,3.01.35,1.12,0,2.48-.09,4.07-.26v6.46c-2.12.24-4.04.35-5.75.35-2.12,0-3.89-.24-5.31-.71-1.42-.47-2.49-1-3.23-1.59-.74-.59-1.28-1.64-1.64-3.14-.35-1.5-.56-2.77-.62-3.81-.06-1.03-.09-2.76-.09-5.18v-25.49h-7.7v-6.19h7.7v-13.54h7.52v13.54h9.12Z"/>
      <path class="cls-1" d="M1708.83,86.96v9.2h-7.61v-9.2h7.61ZM1708.83,104.31v45.67h-7.61v-45.67h7.61Z"/>
      <path class="cls-1" d="M1763.26,117.58h-7.52c-.47-5.54-4.19-8.32-11.15-8.32-2.89,0-5.16.56-6.81,1.68-1.65,1.12-2.48,2.62-2.48,4.51,0,.53.06,1.05.18,1.55.12.5.34.94.66,1.33.32.38.62.72.89,1.02.27.3.71.58,1.33.84.62.27,1.09.49,1.42.66.32.18.91.37,1.77.58.85.21,1.46.35,1.81.44.35.09,1.05.25,2.08.49,1.03.24,1.7.38,1.99.44,2.18.47,3.82.86,4.91,1.15,1.09.3,2.6.84,4.51,1.64,1.92.8,3.38,1.62,4.38,2.48,1,.86,1.9,2.04,2.7,3.54.8,1.5,1.19,3.2,1.19,5.09,0,4.43-1.73,7.98-5.18,10.66-3.45,2.68-8.04,4.03-13.76,4.03-6.19,0-10.96-1.36-14.29-4.07-3.33-2.71-5.12-6.64-5.35-11.77h7.43c.41,6.43,4.54,9.65,12.39,9.65,3.36,0,6.06-.69,8.1-2.08,2.04-1.38,3.05-3.23,3.05-5.53,0-1.53-.53-2.8-1.59-3.8-1.06-1-2.24-1.73-3.54-2.17-1.3-.44-3.16-.96-5.58-1.55-.35-.06-.62-.12-.8-.18-.53-.12-1.67-.37-3.41-.75-1.74-.38-3-.69-3.76-.93-.77-.23-1.87-.6-3.32-1.11-1.45-.5-2.52-1.03-3.23-1.59-.71-.56-1.49-1.27-2.35-2.12-.86-.86-1.46-1.86-1.81-3.01-.35-1.15-.53-2.46-.53-3.94,0-4.13,1.58-7.4,4.73-9.82,3.16-2.42,7.39-3.63,12.7-3.63s9.75,1.27,13.14,3.8c3.39,2.54,5.09,6.14,5.09,10.8Z"/>
      <path class="cls-1" d="M1790.42,86.96v9.2h-7.61v-9.2h7.61ZM1790.42,104.31v45.67h-7.61v-45.67h7.61Z"/>
      <path class="cls-1" d="M1818.03,104.31v7.08c3.78-5.54,8.97-8.32,15.58-8.32,5.37,0,9.25,1.4,11.64,4.2,2.39,2.8,3.58,6.92,3.58,12.35v30.36h-7.52v-26.9c0-2.24-.08-4-.22-5.27-.15-1.27-.52-2.62-1.11-4.07-.59-1.45-1.59-2.49-3.01-3.14-1.42-.65-3.25-.97-5.49-.97-8.67,0-13.01,5.49-13.01,16.46v23.89h-7.52v-45.67h7.08Z"/>
      <path class="cls-1" d="M1908.57,104.31v40.71c0,3.95-.21,7.01-.62,9.16-.41,2.15-1.18,4.17-2.3,6.06-3.36,5.54-9.38,8.32-18.05,8.32-5.13,0-9.47-1.05-13.01-3.14-3.54-2.09-5.61-5.53-6.19-10.31h7.7c.88,5.07,4.81,7.61,11.77,7.61,4.66,0,8.04-1.18,10.13-3.54,2.09-2.36,3.2-6.17,3.32-11.42l.09-5.58c-2.89,5.55-7.73,8.32-14.51,8.32-6.14,0-11.02-2.09-14.65-6.28-3.63-4.19-5.44-9.82-5.44-16.9,0-6.67,1.8-12.37,5.4-17.12,3.6-4.75,8.61-7.12,15.04-7.12,3.19,0,6.03.68,8.54,2.04,2.51,1.36,4.47,3.3,5.88,5.84v-6.64h6.9ZM1887.59,109.62c-4.07,0-7.27,1.58-9.6,4.73-2.33,3.16-3.5,7.51-3.5,13.05,0,5.01,1.21,9.04,3.63,12.08,2.42,3.04,5.63,4.56,9.65,4.56s7.48-1.59,9.87-4.78,3.58-7.55,3.58-13.1c0-5.19-1.19-9.25-3.58-12.17s-5.74-4.38-10.04-4.38Z"/>
      <path class="cls-1" d="M1437.95,225.34c-.65,5.49-2.73,9.85-6.24,13.1-3.51,3.25-8.07,4.87-13.67,4.87-6.9,0-12.24-2.14-16.02-6.42-3.78-4.28-5.66-9.99-5.66-17.12,0-7.61,1.98-13.64,5.93-18.1,3.95-4.46,9.29-6.68,16.02-6.68,5.6,0,10.09,1.4,13.45,4.2,3.36,2.8,5.34,6.8,5.93,11.99h-7.79c-1.36-6.61-5.19-9.91-11.5-9.91-4.37,0-7.82,1.61-10.35,4.82-2.54,3.22-3.81,7.57-3.81,13.05s1.21,9.91,3.63,13.1c2.42,3.19,5.75,4.78,10,4.78,3.42,0,6.21-1,8.36-3.01,2.15-2.01,3.52-4.9,4.12-8.67h7.61Z"/>
      <path class="cls-1" d="M1458.65,201.53c4.01-4.37,9.47-6.55,16.37-6.55s12.27,2.09,16.11,6.28c3.83,4.19,5.75,10.06,5.75,17.61s-1.92,13.75-5.75,18.05c-3.84,4.31-9.23,6.46-16.2,6.46s-12.42-2.12-16.37-6.37c-3.95-4.25-5.93-10.15-5.93-17.7s2-13.42,6.02-17.79ZM1485.33,206.09c-2.57-3.21-6.06-4.82-10.49-4.82s-7.94,1.62-10.53,4.87c-2.6,3.25-3.89,7.58-3.89,13.01s1.28,9.99,3.85,13.14c2.57,3.16,6.15,4.73,10.75,4.73s7.89-1.59,10.4-4.78c2.51-3.19,3.76-7.58,3.76-13.19s-1.28-9.75-3.85-12.96Z"/>
      <path class="cls-1" d="M1521.75,196.31v6.64c2-2.71,4.16-4.69,6.46-5.93,2.3-1.24,5.1-1.86,8.41-1.86,6.25,0,10.47,2.63,12.66,7.88,3.95-5.31,9-7.96,15.13-7.96,4.72,0,8.3,1.31,10.75,3.94,2.45,2.63,3.67,6.3,3.67,11.02v31.95h-7.52v-28.76c0-3.78-.59-6.62-1.77-8.54-1.18-1.92-3.63-2.88-7.35-2.88-7.79,0-11.68,4.75-11.68,14.25v25.93h-7.52v-29.29c0-3.48-.58-6.15-1.73-8.01-1.15-1.86-3.38-2.79-6.68-2.79-4.66,0-7.89,1.43-9.69,4.29-1.8,2.86-2.7,6.74-2.7,11.64v24.16h-7.52v-45.67h7.08Z"/>
      <path class="cls-1" d="M1606.09,196.31v6.46c3.3-5.25,8.44-7.88,15.4-7.88,6.37,0,11.43,2.15,15.18,6.46,3.75,4.31,5.62,10.15,5.62,17.52s-1.84,13.26-5.53,17.65c-3.69,4.4-8.66,6.59-14.91,6.59s-11.65-2.51-15.31-7.52v23.98h-7.52v-63.28h7.08ZM1620.34,201.18c-4.37,0-7.8,1.58-10.31,4.74-2.51,3.16-3.76,7.51-3.76,13.05s1.28,9.9,3.85,13.05c2.57,3.16,6.06,4.74,10.49,4.74s7.7-1.59,10.18-4.78c2.48-3.19,3.72-7.52,3.72-13.01s-1.25-9.9-3.76-13.05c-2.51-3.16-5.97-4.74-10.4-4.74Z"/>
      <path class="cls-1" d="M1700.78,235.96v5.84c-1.53.59-3.25.88-5.13.88-4.31,0-6.52-2.24-6.64-6.72-4.31,4.84-9.82,7.26-16.55,7.26-4.48,0-8.04-1.15-10.66-3.45-2.63-2.3-3.94-5.46-3.94-9.47,0-8.14,5.4-12.89,16.2-14.25.71-.12,1.74-.24,3.1-.35,5.13-.59,8.29-1.27,9.47-2.04,1.36-.94,2.04-2.57,2.04-4.87,0-5.01-3.45-7.52-10.35-7.52-3.54,0-6.23.72-8.05,2.17-1.83,1.45-2.92,3.82-3.27,7.12h-7.35c.12-4.9,1.86-8.7,5.22-11.42,3.36-2.71,7.99-4.07,13.89-4.07,6.43,0,11.21,1.48,14.34,4.43,1,.94,1.74,2.18,2.21,3.72.47,1.53.74,2.79.8,3.76.06.97.09,2.43.09,4.38,0,2.24-.06,5.63-.18,10.18-.12,4.54-.18,7.94-.18,10.18,0,1.65.22,2.82.66,3.5.44.68,1.25,1.02,2.43,1.02.47,0,1.09-.09,1.86-.26ZM1688.65,218.26c-.53.41-1.09.77-1.68,1.06-.59.3-1.34.53-2.26.71-.92.18-1.54.31-1.86.4-.33.09-1.11.21-2.35.35-1.24.15-1.89.22-1.95.22-1.83.24-3.02.4-3.58.49-.56.09-1.62.34-3.19.75-1.56.41-2.67.88-3.32,1.42-.65.53-1.28,1.31-1.9,2.34-.62,1.03-.93,2.26-.93,3.67,0,2.36.81,4.22,2.43,5.58,1.62,1.36,3.85,2.04,6.68,2.04,3.6,0,6.81-1.06,9.65-3.19,2.83-2.12,4.25-4.63,4.25-7.52v-8.32Z"/>
      <path class="cls-1" d="M1723.79,196.31v7.08c3.77-5.54,8.97-8.32,15.58-8.32,5.37,0,9.25,1.4,11.64,4.2,2.39,2.8,3.58,6.92,3.58,12.35v30.36h-7.52v-26.9c0-2.24-.07-4-.22-5.27-.15-1.27-.52-2.62-1.11-4.07-.59-1.45-1.59-2.49-3.01-3.14-1.42-.65-3.25-.97-5.49-.97-8.67,0-13.01,5.49-13.01,16.46v23.89h-7.52v-45.67h7.08Z"/>
      <path class="cls-1" d="M1812.55,196.31l-19.56,51.5c-.77,2.06-1.43,3.67-1.99,4.82-.56,1.15-1.36,2.42-2.39,3.8-1.03,1.39-2.27,2.39-3.72,3.01-1.45.62-3.14.93-5.09.93-1.48,0-3.33-.26-5.58-.8v-6.73c2.18.65,3.81.97,4.87.97,2.48,0,4.25-1.27,5.31-3.81l3.54-8.32-18.14-45.4h8.5l13.54,36.37,12.83-36.37h7.88Z"/>
    </g>
    <g>
      <g>
        <polygon class="cls-2" points="121.23 193.45 56.93 232.45 0 199.77 175 100.68 175 298.87 121.23 268.3 121.23 193.45"/>
        <polygon class="cls-2" points="16.87 86.75 175 0 175 66.94 61.14 131.03 16.87 86.75"/>
      </g>
      <g>
        <path class="cls-1" d="M286.33,133.92h-34.26v-26.71h34.26v-20.32c0-31.64,18.29-48.77,51.97-48.77,7.84,0,15.39.58,21.48,2.61v27c-6.97-1.74-11.61-2.61-18.29-2.61-15.97,0-23.81,7.26-23.81,22.35v19.74h42.1v26.71h-42.1v121.93h-31.35v-121.93Z"/>
        <path class="cls-1" d="M375.45,181.53c0-43.26,34.55-77.22,78.09-77.22s77.8,33.97,77.8,77.22-34.26,77.22-77.8,77.22-78.09-33.68-78.09-77.22ZM500.28,181.53c0-27.58-20.61-49.35-46.74-49.35s-47.03,21.77-47.03,49.35,20.61,49.35,47.03,49.35,46.74-21.48,46.74-49.35Z"/>
        <path class="cls-1" d="M565.6,107.21h31.64v18.58c9.29-13.94,23.23-22.06,40.64-22.06,6.68.29,11.03.87,15.1,2.9v28.16c-5.52-2.32-11.61-3.48-18-3.48-16.55,0-30.19,9.29-37.74,25.84v98.71h-31.64V107.21Z"/>
        <path class="cls-1" d="M671.56,107.21h30.48l27.87,105.67,32.81-105.67h27l32.52,105.96,27.87-105.96h29.9l-41.52,148.64h-30.48l-32.22-105.38-32.52,105.38h-30.48l-41.22-148.64Z"/>
        <path class="cls-1" d="M897.71,213.17c0-28.16,22.93-45.29,60.39-45.29,13.94,0,27.29,2.9,39.48,7.84v-14.52c0-20.03-11.9-30.19-34.84-30.19-13.64,0-27.58,3.77-46.16,12.48l-11.61-23.81c22.64-10.74,42.1-15.39,62.13-15.39,39.19,0,61.55,19.16,61.55,53.42v98.13h-31.06v-12.19c-12.77,10.16-27.58,14.81-45.29,14.81-32.23,0-54.58-18.29-54.58-45.29ZM959.83,235.23c15.1,0,27.58-4.06,37.74-13.06v-24.39c-10.74-5.81-22.64-8.42-36.58-8.42-20.32,0-32.81,9-32.81,22.93s12.48,22.93,31.64,22.93Z"/>
        <path class="cls-1" d="M1068.7,107.21h31.64v18.58c9.29-13.94,23.23-22.06,40.64-22.06,6.68.29,11.03.87,15.1,2.9v28.16c-5.52-2.32-11.61-3.48-18-3.48-16.55,0-30.19,9.29-37.74,25.84v98.71h-31.64V107.21Z"/>
        <path class="cls-1" d="M1171.47,181.24c0-42.68,33.39-76.35,76.06-76.35,15.97,0,31.06,4.94,43.55,13.93V52.63l31.64-5.81v209.03h-31.06v-13.64c-12.48,10.45-27.87,15.97-44.71,15.97-42.1,0-75.48-33.68-75.48-76.93ZM1291.07,213.75v-64.74c-9.29-10.45-23.81-16.84-39.77-16.84-27.58,0-48.48,20.9-48.48,49.06s21.19,49.35,48.48,49.35c16.26,0,30.48-6.1,39.77-16.84Z"/>
      </g>
    </g>
  </g>
</svg>