<svg width="56" height="56" viewBox="0 0 56 56" fill="none" xmlns="http://www.w3.org/2000/svg">
<path fill-rule="evenodd" clip-rule="evenodd" d="M26.9267 52.1523L27.09 52.2457L27.1553 52.283C27.4144 52.4231 27.7043 52.4965 27.9988 52.4965C28.2934 52.4965 28.5833 52.4231 28.8423 52.283L28.9077 52.248L29.0733 52.1523C29.9859 51.6112 30.8764 51.0336 31.7427 50.421C33.9852 48.8378 36.0804 47.0557 38.003 45.0963C42.539 40.453 47.25 33.4763 47.25 24.5C47.25 19.3946 45.2219 14.4983 41.6118 10.8882C38.0017 7.27812 33.1054 5.25 28 5.25C22.8946 5.25 17.9983 7.27812 14.3882 10.8882C10.7781 14.4983 8.75 19.3946 8.75 24.5C8.75 33.474 13.4633 40.453 17.997 45.0963C19.9188 47.0556 22.0133 48.8377 24.255 50.421C25.122 51.0337 26.0133 51.6113 26.9267 52.1523ZM28 31.5C29.8565 31.5 31.637 30.7625 32.9497 29.4498C34.2625 28.137 35 26.3565 35 24.5C35 22.6435 34.2625 20.863 32.9497 19.5503C31.637 18.2375 29.8565 17.5 28 17.5C26.1435 17.5 24.363 18.2375 23.0503 19.5503C21.7375 20.863 21 22.6435 21 24.5C21 26.3565 21.7375 28.137 23.0503 29.4498C24.363 30.7625 26.1435 31.5 28 31.5Z" fill="#33AD84"/>
</svg>
